<svg width="200" height="200" viewBox="0 0 200 200" xmlns="http://www.w3.org/2000/svg">
  <defs>
    <!-- Gradient definitions -->
    <linearGradient id="mainGradient" x1="0%" y1="0%" x2="100%" y2="100%">
      <stop offset="0%" style="stop-color:#667eea;stop-opacity:1" />
      <stop offset="100%" style="stop-color:#764ba2;stop-opacity:1" />
    </linearGradient>
    <linearGradient id="accentGradient" x1="0%" y1="0%" x2="100%" y2="100%">
      <stop offset="0%" style="stop-color:#f093fb;stop-opacity:1" />
      <stop offset="100%" style="stop-color:#f5576c;stop-opacity:1" />
    </linearGradient>
    <radialGradient id="glowGradient" cx="50%" cy="50%" r="50%">
      <stop offset="0%" style="stop-color:#ffffff;stop-opacity:0.3" />
      <stop offset="100%" style="stop-color:#ffffff;stop-opacity:0" />
    </radialGradient>
  </defs>
  
  <!-- Main background circle -->
  <circle cx="100" cy="100" r="95" fill="url(#mainGradient)" stroke="#ffffff" stroke-width="3" opacity="0.95"/>
  
  <!-- Inner geometric design -->
  <g transform="translate(100,100)">
    <!-- Central hexagon -->
    <polygon points="-25,-43.3 25,-43.3 50,0 25,43.3 -25,43.3 -50,0" fill="url(#accentGradient)" opacity="0.8"/>
    
    <!-- Rotating triangular elements -->
    <g transform="rotate(0)">
      <polygon points="0,-60 15,-35 -15,-35" fill="#ffffff" opacity="0.7"/>
    </g>
    <g transform="rotate(120)">
      <polygon points="0,-60 15,-35 -15,-35" fill="#ffffff" opacity="0.7"/>
    </g>
    <g transform="rotate(240)">
      <polygon points="0,-60 15,-35 -15,-35" fill="#ffffff" opacity="0.7"/>
    </g>
    
    <!-- Central circle -->
    <circle cx="0" cy="0" r="20" fill="#ffffff" opacity="0.9"/>
    <circle cx="0" cy="0" r="12" fill="url(#accentGradient)"/>
    
    <!-- Decorative dots -->
    <circle cx="0" cy="-70" r="4" fill="#ffffff" opacity="0.6"/>
    <circle cx="60.6" cy="35" r="4" fill="#ffffff" opacity="0.6"/>
    <circle cx="-60.6" cy="35" r="4" fill="#ffffff" opacity="0.6"/>
  </g>
  
  <!-- Subtle glow effect -->
  <circle cx="100" cy="100" r="95" fill="url(#glowGradient)"/>
  
  <!-- Outer decorative elements -->
  <g opacity="0.4">
    <circle cx="30" cy="30" r="3" fill="#ffffff"/>
    <circle cx="170" cy="30" r="3" fill="#ffffff"/>
    <circle cx="30" cy="170" r="3" fill="#ffffff"/>
    <circle cx="170" cy="170" r="3" fill="#ffffff"/>
  </g>
</svg>